<?xml version="1.0" standalone="no"?>
<!DOCTYPE svg PUBLIC "-//W3C//DTD SVG 1.1//EN" "http://www.w3.org/Graphics/SVG/1.1/DTD/svg11.dtd">
<svg xmlns="http://www.w3.org/2000/svg">
<metadata>Copyright (C) 2014 by original authors @ fontello.com</metadata>
<defs>
<font id="fontello" horiz-adv-x="1000" >
<font-face font-family="fontello" font-weight="400" font-stretch="normal" units-per-em="1000" ascent="850" descent="-150" />
<missing-glyph horiz-adv-x="1000" />
<glyph glyph-name="collaboration" unicode="&#xe800;" d="m679 633c-68 0-130-24-179-64-49 40-111 64-179 64-156 0-283-127-283-283 0-156 127-283 283-283 68 0 130 24 178 64l2-2 1 1c48-39 110-63 177-63 156 0 283 127 283 283 0 156-127 283-283 283z m-191-422c-29 40-45 88-45 138 0 58 20 112 58 155 35-41 57-95 57-154 0-59-22-113-58-155-4 5-8 10-12 15 0 0 0 0 0 1z m-404 139c0 131 106 237 237 237 55 0 106-19 146-50-44-50-71-115-71-187 0-70 26-134 68-183 1-1 2-2 3-3-40-32-91-51-146-51-131 0-237 106-237 237z m595-237c-54 0-105 18-145 50 46 51 71 117 71 186 0 70-26 136-72 188 41 31 91 50 146 50 131 0 238-106 238-237 0-131-107-237-238-237z" horiz-adv-x="1000" />
<glyph glyph-name="done-interaction" unicode="&#xe831;" d="m45 350c0-239 184-435 419-454v902c0 2 0 4 0 6-234-19-419-215-419-454z m378 407v-815c-86 17-166 60-227 126-71 77-111 177-111 282 0 105 40 205 111 282 61 66 141 109 227 125z m108 47c0-2 0-4 0-6v-902c237 16 424 213 424 454 0 241-187 438-424 454z m272-737c-62-66-143-110-231-125v816c195-34 343-205 343-408 0-106-40-206-112-283z" horiz-adv-x="1000" />
<glyph glyph-name="function" unicode="&#xe802;" d="m500 801l-430-187v-715l430 155 430-155v715l-430 187z m377-827l-377 136-377-136v606l377 163 377-163v-606z" horiz-adv-x="1000" />
<glyph glyph-name="interaction" unicode="&#xe803;" d="m25 350c0-245 193-444 430-444h27v888h-27c-237 0-430-199-430-444z m403-389c-195 14-349 183-349 389 0 205 154 375 349 389v-778z m117 833h-27v-888h27c237 0 430 200 430 444 0 245-193 444-430 444z m27-833v778c195-14 350-183 350-389s-155-375-350-389z" horiz-adv-x="1000" />
<glyph glyph-name="interface" unicode="&#xe804;" d="m947 696v55c-212 0-386-167-399-376h-495v-54h495c15-207 188-372 399-372v55c-191 0-346 155-346 346 0 191 155 346 346 346z" horiz-adv-x="1000" />
<glyph glyph-name="interface2" unicode="&#xe805;" d="m673 631c-148 0-270-116-280-262h-347v-41h348c11-145 132-259 279-259 155 0 281 126 281 281 0 155-126 281-281 281z m0-520c-132 0-239 107-239 239 0 132 107 240 239 240 132 0 240-108 240-240 0-132-108-239-240-239z" horiz-adv-x="1000" />
<glyph glyph-name="object" unicode="&#xe806;" d="m39 620v-540h922v540h-922z m883-39v-73h-844v73h844z m-844-462v350h844v-350h-844z" horiz-adv-x="1000" />
<glyph glyph-name="service" unicode="&#xe807;" d="m773 594h-546c-104 0-188-110-188-244 0-134 84-244 188-244h546c104 0 188 110 188 244 0 134-84 244-188 244z m0-448h-546c-82 0-149 91-149 204 0 113 67 204 149 204h546c82 0 149-91 149-204 0-113-67-204-149-204z" horiz-adv-x="1000" />
<glyph glyph-name="actor" unicode="&#xe808;" d="m519 136v217h204v49h-204v37c82 11 145 80 145 165 0 91-74 165-165 165-44 0-86-17-117-48-32-32-49-73-49-117 0-82 60-150 137-163v-39h-195v-49h195v-223l-203-159 30-38 202 157 204-159 30 38-214 167z m-20 351c-65 0-117 52-117 117 0 31 12 60 34 82 22 22 52 34 83 34 64 0 117-52 117-116 0-65-53-117-117-117z" horiz-adv-x="1000" />
<glyph glyph-name="collaboration-1" unicode="&#xe809;" d="m681 634c-69 0-132-25-181-65-49 40-112 65-181 65-156 0-283-127-283-284 0-156 127-284 283-284 69 0 131 24 181 65l1-2 1 1c49-40 111-64 179-64 156 0 283 128 283 284 0 157-127 284-283 284z m-362-524c-132 0-240 108-240 240s108 240 240 240c57 0 109-19 150-52-45-50-72-116-72-188 0-60 19-116 51-162 1-1 1-1 1-2 5-7 10-14 16-20 1-1 2-3 4-4-41-33-93-52-150-52z m181 82c-9 10-17 22-24 33-1 0-1 1-1 1-22 37-34 79-34 123 0 59 21 115 60 158 1-1 2-2 4-4 5-7 10-14 15-21 25-38 40-83 40-132 0-60-23-116-60-158z m181-82c-56 0-107 19-148 51 46 52 71 118 71 188 0 71-25 137-72 189 41 33 92 52 149 52 132 0 240-107 240-240 0-132-108-240-240-240z" horiz-adv-x="1000" />
<glyph glyph-name="contract" unicode="&#xe80a;" d="m39 627v-554h922v554h-922z m880-511h-838v390h838v-390z m0 433h-838v35h838v-35z" horiz-adv-x="1000" />
<glyph glyph-name="event" unicode="&#xe80b;" d="m686 612h-620c-11 0-20-9-20-20 0-11 9-20 20-20 125 0 228-99 228-222 0-123-103-222-228-222-11 0-20-9-20-20 0-11 9-20 20-20h620c148 0 268 118 268 262 0 145-120 262-268 262z m0-484h-478c75 46 126 128 126 222 0 94-51 176-126 222h478c126 0 229-99 229-222 0-123-103-222-229-222z" horiz-adv-x="1000" />
<glyph glyph-name="function-1" unicode="&#xe80c;" d="m500 817l-443-194v-740l443 161 444-160v739l-444 194z m389-855l-389 140-389-140v625l389 170 389-170v-625z" horiz-adv-x="1000" />
<glyph glyph-name="interface-1" unicode="&#xe80d;" d="m674 637c-150 0-273-116-285-262h-350v-43h349c10-150 134-269 286-269 158 0 287 129 287 287 0 158-129 287-287 287z m0-531c-134 0-244 110-244 244s110 244 244 244c135 0 244-109 244-244s-109-244-244-244z" horiz-adv-x="1000" />
<glyph glyph-name="location" unicode="&#xe80e;" d="m500 796c-252 0-457-157-457-350 3-129 107-203 208-275 103-73 200-142 213-267l35 4 35-4c12 125 116 199 216 269 102 72 207 146 207 274 0 192-205 349-457 349z m210-566c-78-55-164-116-211-205-46 88-131 148-208 203-95 67-177 125-179 219 0 154 174 279 388 279 214 0 388-125 388-279 0-92-83-150-178-217z" horiz-adv-x="1000" />
<glyph glyph-name="meaning" unicode="&#xe80f;" d="m944 456c11 37 7 75-10 106-16 30-43 51-75 60-27 41-68 62-119 62-28 0-53-6-69-12-17 16-40 25-68 25-35 0-70-14-92-35-19 11-41 17-66 17-44 0-88-19-112-48-20 6-40 8-60 8-49 0-93-18-123-50-25-28-39-65-39-106-35-9-62-36-73-74-11-39-5-90 26-123-15-33-14-72 4-106 20-39 58-63 100-66 27-44 84-71 154-71 24 0 48 3 71 10 24-22 51-43 92-48 8-1 15-2 23-2 58 0 108 29 147 84 14-3 28-4 42-4 77 0 134 45 150 117 44 11 82 43 103 89 25 54 23 117-6 167z m-36-148c-17-38-47-62-83-66l-18-2-2-18c-8-58-48-93-108-93-15 0-31 2-47 6l-17 4-8-14c-22-35-59-76-117-76-6 0-12 0-17 1-32 4-52 23-75 45l-11 10-13-5c-22-8-46-12-70-12-57 0-104 23-119 58l-7 15-16-1c-30-2-58 14-72 41-14 25-12 54 4 78l13 19-19 12c-27 18-32 58-24 86 4 13 16 44 53 44l24 1-2 24c-4 38 6 70 27 93 21 23 53 36 89 36 20 0 40-4 60-12l19-7 10 18c12 23 48 40 83 40 22 0 41-6 54-18l22-20 14 25c9 18 40 32 68 32 11 0 32-3 42-19l11-17 18 8c5 3 33 15 66 15 38 0 66-16 85-48l5-9 13-3c22-5 40-19 51-39 12-22 14-51 4-80l-4-10 6-10c25-38 28-88 8-132z" horiz-adv-x="1000" />
<glyph glyph-name="object-1" unicode="&#xe810;" d="m48 605v-510h904v510h-904z m866-471h-828v323h828v-323z m0 361h-828v72h828v-72z" horiz-adv-x="1000" />
<glyph glyph-name="process" unicode="&#xe811;" d="m952 352l-264 408v-126h-640v-552h640v-142l264 412z m-860-226v464h641v20l167-258-167-261v35h-641z" horiz-adv-x="1000" />
<glyph glyph-name="product" unicode="&#xe812;" d="m525 673h-472v-199-447h894v646h-422z m-422-50h372v-99h-372v99z m795-546h-795v397h422v149h373v-546z" horiz-adv-x="1000" />
<glyph glyph-name="representation" unicode="&#xe813;" d="m32 596v-383l2-4c3-5 62-105 205-105 82 0 174 33 274 98 91 60 164 87 230 87 64 0 121-25 192-86l33-28v421h-936z m896-336c-64 48-122 69-185 69-74 0-154-29-252-94-93-60-178-91-252-91h0c-105 0-155 63-167 80v332h856v-296z" horiz-adv-x="1000" />
<glyph glyph-name="role" unicode="&#xe827;" d="m791 633c-1 0-2 0-2 0v2h-585c-93 0-167-125-167-284 0-160 74-284 167-284h572c5-1 10-1 15-1 96 0 172 124 172 283 0 159-76 284-172 284z m-587-524c-67 0-124 111-124 242 0 130 57 241 124 241h497c-50-49-82-139-82-243 0-102 31-190 79-240h-494z m587-1c-1 0-2 0-2 0v1h-10c-65 12-118 117-118 240 0 131 60 241 130 241 70 0 129-110 129-241 0-130-59-241-129-241z" horiz-adv-x="1000" />
<glyph glyph-name="service-1" unicode="&#xe826;" d="m764 111h-528c-100 0-182 107-182 239 0 132 82 239 182 239h528c100 0 182-107 182-239 0-132-82-239-182-239z m-528 440c-79 0-143-90-143-201 0-111 64-201 143-201h528c79 0 143 90 143 201 0 111-64 201-143 201h-528z" horiz-adv-x="1000" />
<glyph glyph-name="value" unicode="&#xe825;" d="m835 566c-90 55-209 85-335 85s-245-30-335-85c-93-57-144-134-144-216 0-82 51-159 144-216 90-54 209-85 335-85 126 0 245 31 335 85 93 57 144 134 144 216 0 82-51 159-144 216z m-335-476c-241 0-438 117-438 260 0 143 197 260 438 260 242 0 438-117 438-260 0-143-196-260-438-260z" horiz-adv-x="1000" />
<glyph glyph-name="milestone" unicode="&#xe824;" d="m500 795c-245 0-445-200-445-445s200-445 445-445 445 200 445 445-200 445-445 445z m-36-817c-177 17-319 159-336 336h336v-336z m0 408h-336c17 177 159 319 336 336v-336z m72 336c177-17 319-159 336-336h-336v336z m0-744v336h336c-17-177-159-319-336-336z" horiz-adv-x="1000" />
<glyph glyph-name="work-package-1" unicode="&#xe823;" d="m285 601h-208c-22 0-45-16-45-40v-419c0-23 21-43 45-43h208c24 0 44 20 44 43v419c-1 22-19 40-44 40z m4-459c0-1-2-3-4-3h-208c-2 0-5 2-6 3v417c1 1 3 2 6 2h208c2 0 3 0 4-1v-418z m636 459h-541c-24 0-42-18-42-40v-419c0-23 19-43 42-43h541c23 0 43 20 43 43v419c0 22-19 40-43 40z m0-462h-541c-1 0-3 2-3 3l0 418c0 0 2 1 3 1h541c2 0 3-1 4-1l0-418c0-1-3-3-4-3z" horiz-adv-x="1000" />
<glyph glyph-name="component" unicode="&#xe801;" d="m180 662v-115h-124v-164h124v-74h-124v-156h124v-115h764v624h-764z m-74-230v66h74 123v-66h-123-74z m0-230v58h74 123v-58h-123-74z m788-115h-665v66h123v0 156 0h-123v74h123v164h-123v66h665v-526z" horiz-adv-x="1000" />
<glyph glyph-name="gap" unicode="&#xe821;" d="m961 480h-139c-52 132-180 226-331 226-151 0-279-94-332-226h-120v-53h104c-5-25-8-51-8-77 0-22 2-44 6-65h-102v-54h116c49-138 181-237 336-237 155 0 286 99 335 237h135v54h-120c4 21 6 43 6 65 0 26-3 52-8 77h122v53z m-470 173c120 0 225-71 273-173h-546c48 102 152 173 273 173z m0-606c-125 0-233 76-279 184h558c-47-108-154-184-279-184z m303 303c0-22-3-44-7-65h-592c-4 21-7 43-7 65 0 27 4 52 10 77h586c6-25 10-50 10-77z" horiz-adv-x="1000" />
<glyph glyph-name="plateau" unicode="&#xe820;" d="m919 690h-659c-26 0-51-24-51-50v-102c0-28 26-45 51-45h659c25 0 42 18 42 45v102c0 29-18 50-42 50z m-11-143h-645v90h645v-90z" horiz-adv-x="1000" />
<glyph glyph-name="work-package" unicode="&#xe81f;" d="m917 84h-836c-23 0-42 23-42 50v437c0 25 18 45 42 45h836c25 0 44-20 44-45v-437c0-27-20-50-44-50z m-833 45h831c1 1 2 3 2 5v437c0 0 0 1 0 1l-834-1c0 0 0 0 0 0v-437c0-2 1-4 1-5z" horiz-adv-x="1000" />
<glyph glyph-name="assessment" unicode="&#xe81e;" d="m638 781c-161 0-293-132-293-293 0-65 22-125 57-173l-333-333 63-63 333 333c48-36 108-57 173-57 161 0 293 131 293 293 0 161-132 293-293 293z m0-521c-61 0-116 24-157 63l-8 8c-39 41-63 96-63 157 0 126 102 228 228 228 126 0 228-102 228-228 0-126-102-228-228-228z" horiz-adv-x="1000" />
<glyph glyph-name="constraint" unicode="&#xe81d;" d="m173 596l-151-492h805l151 492h-805z m31-42h116l-125-408h-116l125 408z m593-408h-558l125 408h312l3-4 1 1-2 3h244l-125-408z" horiz-adv-x="1000" />
<glyph glyph-name="driver" unicode="&#xe81c;" d="m835 375c-6 69-33 132-74 183l83 82-53 53-82-82c-52 41-115 68-184 75v126h-75v-128c-65-8-125-34-174-73l-82 82-53-53 82-82c-41-51-67-114-74-183h-98v-75h100c8-65 34-124 74-173l-83-83 53-53 83 83c49-38 108-64 172-72v-114h75v113c68 6 131 33 182 73l84-84 53 54-84 83c40 49 66 108 74 173h116v0 75h-115z m-558 129l129-129h-181c6 48 24 92 52 129z m-50-204h171l-120-119c-26 34-44 75-51 119z m223-222c-44 7-84 24-118 50l118 118v-168z m0 359l-120 120c34 26 75 45 120 52v-172z m75 173c49-6 93-25 130-53l-130-130v183z m0-533v179l128-128c-37-27-80-46-128-51z m182 104l-120 119h171c-7-44-25-85-51-119z m-128 194l129 129c28-37 46-81 52-129h-181z" horiz-adv-x="1000" />
<glyph glyph-name="goal" unicode="&#xe81b;" d="m500 801c-249 0-451-202-451-451 0-120 47-234 132-319 85-85 199-132 319-132 249 0 451 203 451 451s-202 451-451 451z m0-823c-99 0-193 39-263 109-70 70-109 164-109 263 0 205 167 372 372 372s372-167 372-372c0-205-167-372-372-372z m0 690c-176 0-318-142-318-318 0-176 142-318 318-318 176 0 319 142 319 318 0 176-143 318-319 318z m0-558c-132 0-240 108-240 240 0 132 108 240 240 240 132 0 240-108 240-240 0-132-108-240-240-240z m106 346c29-28 44-66 44-105 0-82-67-149-149-149-82 0-148 67-148 149 0 82 66 148 148 148 40 0 77-15 105-43z" horiz-adv-x="1000" />
<glyph glyph-name="principle" unicode="&#xe81a;" d="m879 788h-757c-33 0-60-25-60-55v-760c0-32 29-61 60-61h757c31 0 59 29 59 61v760c0 31-26 55-59 55z m-15-802h-728v728h728v-728z m-444 296v392c0 9 10 15 21 15h124c11 0 15-6 15-15v-392c0-10-4-12-15-12h-124c-11 0-21 2-21 12z m160-129v-133c0-11-6-22-16-22h-126c-11 0-18 11-18 22v133c0 11 7 18 18 18h126c10 0 16-7 16-18z" horiz-adv-x="1000" />
<glyph glyph-name="requirement" unicode="&#xe819;" d="m189 582l-143-464h765l143 464h-765z m593-425h-683l119 386h683l-119-386z" horiz-adv-x="1000" />
<glyph glyph-name="stakeholder" unicode="&#xe818;" d="m968 350c0 156-75 279-171 281v0h-597c-94 0-168-123-168-281 0-158 74-281 168-281h597v1c96 2 171 124 171 280z m-894 0c0 130 58 239 126 239h503c-49-49-81-137-81-239 0-102 32-190 81-239h-503c-68 0-126 110-126 239z m721-238c-71 0-131 109-131 238 0 129 60 239 131 239 71 0 131-110 131-239 0-129-60-238-131-238z" horiz-adv-x="1000" />
<glyph glyph-name="artifact" unicode="&#xe817;" d="m849 560l-254 250c-1 0-1 1-2 1-6 6-14 11-24 11h-394c-19 0-33-15-33-33v-878c0-18 14-33 33-33h646c19 0 33 15 33 33v610c1 1 2 2 2 3 5 12 2 26-7 36z m-245 149l141-140h-143l2 140z m-396-765v812h330l-2-209c0-2 0-4 1-6 0-1-1-3-1-5 0-18 15-32 33-32h220v-560h-581z" horiz-adv-x="1000" />
<glyph glyph-name="communication-path" unicode="&#xe816;" d="m534 359h123v-23h-123v23z m-183 0h122v-23h-122v23z m-187 78l-18 19-114-106 114-106 18 19-79 73h151v23h-156l84 78z m690 19l-18-19 84-78h-156v-23h151l-79-73 18-19 114 106-114 106z" horiz-adv-x="1000" />
<glyph glyph-name="device" unicode="&#xe815;" d="m858 205c3 2 6 3 9 5 9 7 14 17 14 28v394c0 20-18 38-40 38h-677c-22 0-40-18-40-38v-394c0-13 8-25 19-31l-107-177h928l0 0-106 175z m-688 418h664l0-374h-2-662v374z m-51-546l76 125h610l76-125h-762z" horiz-adv-x="1000" />
<glyph glyph-name="function-2" unicode="&#xe814;" d="m933-108l-433 158-433-158v726l433 190 433-190v-726z m-433 215l380-138v614l-380 166-379-166v-614l379 138z" horiz-adv-x="1000" />
<glyph glyph-name="interface-2" unicode="&#xe828;" d="m675 639c-151 0-275-117-287-265h-352v-23-7-15h351c11-149 136-268 288-268 159 0 289 130 289 289 0 159-130 289-289 289z m0-532c-134 0-243 109-243 243 0 134 109 243 243 243 134 0 243-109 243-243 0-134-109-243-243-243z" horiz-adv-x="1000" />
<glyph glyph-name="network" unicode="&#xe829;" d="m119 26c-48 0-87 39-87 87 0 48 39 87 87 87 1 0 3 0 4 0l104 313c-25 16-41 44-41 74 0 48 39 87 87 87 40 0 74-27 84-65h440c10 38 44 65 84 65 48 0 87-39 87-87s-39-87-87-87c-1 0-3 0-4 0l-105-314c24-16 39-43 39-73 0-48-39-87-87-87-40 0-74 28-84 66h-437c-10-38-44-66-84-66z m0 128c-23 0-42-18-42-41 0-23 19-41 42-41 22 0 41 18 41 41l0 1-1 23h524l0-24c0-23 19-41 41-41 23 0 42 18 42 41 0 18-12 34-29 39l-22 7 132 396 22-7c4-2 8-2 12-2 23 0 42 18 42 41 0 23-19 41-42 41-22 0-40-18-41-40v-24h-526l1 24c-1 22-19 40-42 40-23 0-41-18-41-41 0-18 12-35 30-40l23-6-132-396-22 7c-4 2-8 2-12 2z" horiz-adv-x="1000" />
<glyph glyph-name="node" unicode="&#xe82a;" d="m127 800l0 0 0 0h0v0l-71-58 2-3h-3v-839h839v4l51 98h0v798h-818z m705-839h-715v716h715v-716z m34 778h-766l38 30h759l-31-30z m48-729l-20-39v752l20 21v-734z" horiz-adv-x="1000" />
<glyph glyph-name="service-2" unicode="&#xe82b;" d="m873 511c-33 44-77 69-125 69h-503c-96 0-175-102-175-226 0-125 79-226 175-226h503c96 0 175 101 175 226 0 59-18 115-50 157z m-125-344h-503c-74 0-135 84-135 187 0 102 61 186 135 186h503c35 0 68-19 93-53 27-35 42-83 42-133 0-103-61-187-135-187z" horiz-adv-x="1000" />
<glyph glyph-name="system-software" unicode="&#xe82c;" d="m560 772c-34 9-70 13-107 13-238 0-432-193-432-431 0-239 194-432 432-432 41 0 80 5 117 16 223 9 402 193 402 418 0 225-184 409-412 416z m2-780c-3 0-6 0-9 0v-2c-32-9-65-14-100-14-208 0-377 170-377 378 0 208 169 377 377 377 32 0 63-4 93-12v-1c2 0 4 0 6 0 160-44 278-191 278-364 0-171-113-315-268-362z m218 79c65 76 105 175 105 283 0 109-41 209-109 285 86-66 141-168 141-283 0-115-54-218-137-285z" horiz-adv-x="1000" />
<glyph glyph-name="competency" unicode="&#xe82d;" d="m942 509c-15 15-32 23-51 23-23 0-45-13-58-38-1 0-1-1-1-1-1 5-2 10-2 15 0 22 0 44 0 66 0 33 0 68-1 102-1 17-19 45-39 46-38 1-75 1-110 1-33 0-66 0-97-1-37-2-63-24-70-60-5-34 8-61 40-77-15-9-34-13-52-13-20 0-38 5-51 15 33 17 47 46 39 80-7 26-26 56-80 56l-2 0c-71-1-127-1-182 0l-3 0c-11 0-28-1-39-13-9-9-13-21-12-39 1-59 0-118 0-167 0-4-1-8-2-12-13 25-35 39-59 39-19 0-37-8-52-23-52-52-52-178-1-232 16-16 34-24 52-24 23 0 44 13 58 37 0 1 1 2 2 3 0-3 1-7 1-10l0-21c1-46 2-93 0-139 0-13 0-33 13-46 13-13 31-14 44-14 1 0 3 0 5 0 21 0 44 1 70 1 29 0 58-1 90-1 3 0 6-1 8-1-21-11-34-29-37-50-3-21 5-43 23-60 25-25 69-40 119-40 45 0 85 13 109 35 20 17 29 39 27 61-3 21-17 40-39 53 1 0 2 0 3 0l14 1c38 0 76 1 114 1 14 0 28 0 42 0l3 0c11 0 28 1 40 13 12 13 13 30 12 43-1 56-1 111 0 167 0 2 1 4 1 7 14-26 35-40 58-40 18 0 35 8 51 23 25 24 40 67 41 115 1 49-14 94-39 119z m-26-209c-9-9-18-14-27-14-14 0-24 15-29 24-3 6-6 11-10 17-1 2-3 4-4 6l-5 8-33 0-3-13c-1-4-2-8-3-12-3-9-6-19-6-31-1-54-2-112 0-168 0-13-2-17-3-18-1-1-4-3-15-3l-2 0c-52 1-106 0-157-1l-15 0c-9-1-17-2-27-5-5-1-11-2-19-4l-36-7 29-23c5-4 10-8 13-11 7-6 12-10 18-14 15-7 23-18 25-28 1-11-5-22-16-32-17-16-50-26-86-26-40 0-76 12-95 30-10 10-15 21-13 31 1 10 9 19 21 25 6 4 12 7 18 11 2 2 5 3 7 5l9 5-3 34-12 2c-4 1-8 2-12 3-10 2-21 5-32 5-32 1-62 1-91 1-26 0-49 0-71-1-2 0-3 0-4 0-13 0-17 2-19 4-2 1-4 6-3 20 2 48 1 96-1 142l0 21c0 11-3 21-5 31-1 4-2 8-3 12l-3 12-33 5-11-18c-4-6-8-12-12-19-4-7-14-20-28-20-9 0-18 5-27 14-38 40-38 145 0 184 9 9 19 13 28 13 12 0 23-8 31-23l1-4c2-4 4-9 7-13 3-4 6-7 11-9 2-2 5-3 9-6l22-14 5 25c1 6 2 11 3 16 3 12 6 23 6 34 1 50 1 109 0 169 0 9 1 13 2 14 1 1 4 3 15 3l3 0c54-1 111-1 182 0l2 0c34 0 43-16 46-30 4-13 4-32-27-45-4-1-7-3-10-5-1 0-2-1-3-2l-16-8 9-15c17-29 51-47 93-47 36 0 70 14 94 38l14 14-17 12c-2 1-4 2-6 4-4 3-9 7-15 9-20 9-27 22-24 42 5 26 25 31 37 31 31 2 63 2 96 2 34 0 69-1 106-2 3-2 8-9 8-12 2-34 2-68 2-101 0-22 0-45 0-67 0-12 2-23 5-34 1-4 2-9 2-13l2-12 33-6 7 9c1 3 3 5 5 8 4 5 9 12 12 18 8 14 18 21 29 21 9 0 18-4 27-13 18-19 29-55 29-94-1-39-12-74-31-91z" horiz-adv-x="1000" />
<glyph glyph-name="feature" unicode="&#xe82e;" d="m500 410c-33 0-60-27-60-60 0-33 27-60 60-60 33 0 60 27 60 60 0 33-27 60-60 60z m0-100c-22 0-40 18-40 40 0 22 18 40 40 40 22 0 40-18 40-40 0-22-18-40-40-40z m0 260c-121 0-220-98-220-220 0-121 99-220 220-220 122 0 220 99 220 220 0 122-98 220-220 220z m0-420c-110 0-200 90-200 200 0 110 90 200 200 200 110 0 200-90 200-200 0-110-90-200-200-200z m427 300c0 0 0 0 0 0l-82 5c-7 23-16 45-28 66l55 59c21 22 21 56 0 77l-65 65c-10 10-24 16-38 16-15 0-28-6-38-15l-60-56c-21 12-43 21-66 28l-5 81c0 30-24 54-54 54h-92c-30 0-54-24-54-53l-5-82c-23-7-45-16-66-28l-59 55c-11 10-24 16-39 16-14 0-28-6-38-16l-65-65c-21-21-21-55 0-76l55-60c-12-21-21-43-28-66l-81-5c-30 0-54-24-54-54v-92c0-30 24-54 53-54 0 0 0 0 0 0l82-5c7-23 16-45 28-66l-55-59c-21-22-21-56 0-77l65-65c10-10 24-16 38-16 15 0 28 6 38 15l60 56c21-12 43-21 66-28l5-81c0-30 24-54 54-54h92c30 0 54 24 54 53l5 82c23 7 45 16 66 28l59-55c11-10 24-16 39-16 14 0 28 6 38 16l65 65c21 21 21 55 0 76l-55 60c12 21 21 43 28 66l81 5c30 0 54 24 54 54v92c0 30-24 54-53 54z m33-146c0-19-15-34-34-34l-97-6-2-7c-7-26-18-51-31-74l-4-6 66-72c13-13 13-34 0-48l-65-65c-7-6-15-10-24-10s-18 4-24 11l-72 65-6-4c-23-13-48-24-74-31l-7-2-6-97c0-19-15-34-34-34h-92c-19 0-34 15-34 34l-6 97-7 2c-26 7-51 18-74 31l-6 4-72-66c-6-6-15-10-24-10s-17 4-24 10l-65 65c-13 14-13 35 1 48l65 72-4 6c-13 23-24 48-31 74l-2 7-97 6c-19 0-34 15-34 34v92c0 19 15 34 35 34l96 6 2 7c7 26 18 51 31 74l4 6-66 72c-13 13-13 35 0 48l65 65c7 6 15 10 24 10 9 0 18-4 24-11l72-65 6 4c23 13 48 24 74 31l7 2 6 97c0 19 15 34 34 34h92c19 0 34-15 34-34l6-97 7-2c26-7 51-18 74-31l6-4 72 66c6 6 15 10 24 10 9 0 17-4 24-10l65-65c13-13 13-35-1-48l-65-72 4-6c13-23 24-48 31-74l2-7 97-6c19 0 34-15 34-34v-92z m-460 186c-77 0-140-63-140-140 0-77 63-140 140-140 77 0 140 63 140 140 0 77-63 140-140 140z m0-260c-66 0-120 54-120 120 0 66 54 120 120 120 66 0 120-54 120-120 0-66-54-120-120-120z" horiz-adv-x="1000" />
<glyph glyph-name="idea" unicode="&#xe82f;" d="m782 571c-11 72-46 137-100 185-54 47-123 74-196 76-3 0-6 0-8 0-88 0-163-34-225-101-53-58-81-133-80-212 1-79 32-153 88-209 14-15 22-30 25-46 5-26 7-51 10-78 1-11 4-26 20-34 3-1 6-2 9-4 13-6 26-12 39-14 23-2 46-3 68-3 14 0 29 0 43-1l0 0h4c1 0 2 0 2 0l8-1 0 1c6 0 12 0 18 0 9 0 17 0 25 0 13 0 23 0 33 0 32 1 58 9 80 24 11 7 16 17 17 30l1 1c1 18 2 37 5 55 3 30 14 53 34 74 33 36 57 76 71 119 13 43 16 89 9 138z m-95-244c-22-23-35-51-39-84-3-19-4-38-5-56l-1-2c0-6-3-11-8-15-19-13-41-19-70-20-9 0-19 0-32 0-8 0-16 0-25 0-7 0-15 0-23 0l0 0h-5c0 0-1 0-2 0-15 1-30 1-44 1-22 0-45 1-66 3-11 1-21 7-33 12-3 2-6 3-9 5-5 2-8 5-9 17-3 27-6 53-10 79-4 20-14 39-31 57-106 108-109 281-7 394 57 63 128 94 210 94 2 0 5 0 8 0 139-3 255-106 276-244 14-92-11-173-75-241z m-85-267c-81 0-161 0-241 0l-4 0c-3 0-6 0-8-1-10-1-18-6-22-13-5-7-7-16-4-25 3-16 14-23 33-23 30 0 59 0 89 0 11 0 23 0 35 0l46 0c8 0 16 0 23 0 8 0 15 0 23 0 13 0 23 0 33 0 11 0 20 4 26 11 5 7 7 17 5 27-2 11-10 24-34 24z m13-38c-2-3-6-4-10-4-10 0-20 0-33 0-8 0-15 0-23 0-7 0-15 0-23 0h0l-46 0c-12 0-24 0-35 0-30 0-59 0-89 0-12 0-13 3-14 8-1 3 0 6 1 9 2 2 5 4 8 4 2 1 4 1 6 1l4 0c80 0 160 0 241 0 13 0 14-5 15-8 0-3 0-7-2-10z m-261 45c15 0 33 0 54 0 11 0 22 0 34 0 11 0 22 0 34 0h3c4 0 8 0 11 0h2c11 0 21 0 31 0 10 0 20 0 31 0 20 0 36 0 51 0 13 0 20 5 24 9 4 5 9 12 8 25-2 17-14 27-33 27-30 0-60 0-90 0l-99 0-32 0c-10 0-20 0-30 0-14 0-25-7-29-19-4-10-3-21 3-29 5-8 15-13 27-13z m-11 35c1 4 3 6 10 6 10 0 20 0 30 0l32 0 99 0c30 0 60 0 90 0 11 0 12-4 13-9 0-3 0-7-2-9-3-3-7-3-10-3-15 0-31 0-51 0-10 0-21 0-31 0-10 0-20 0-31 0h-2c-3 0-7 0-11 0h-3c-12 0-23 0-34 0-12 0-23 0-34 0-21 0-38 0-54 0-5 0-9 1-11 4-2 3-2 7 0 11z m241-112c-4 1-8 1-13 1-61 0-122 0-183 0-5 0-8 0-12-1-9-1-17-5-22-12-5-7-7-16-5-25 2-9 9-24 33-24 13 0 26 0 42 0 9 0 18 0 27 0 9 0 18 0 26 0l43 0c10 0 19 0 28 0l1 0c3 0 5 0 8 0 2 0 5 0 8 0 4 0 11 0 17 0 17 1 28 14 28 31 0 16-10 28-26 30z m-3-41c-5 0-10 0-16 0-3 0-6 0-8 0-3 0-5 0-8 0l-1 0c-9 0-18 0-28 0l-43 0c-8 0-17 0-26 0-9 0-18 0-27 0-16 0-29 0-42 0-12 0-13 5-13 8-1 2-1 6 1 9 2 3 6 4 9 4 2 1 5 1 9 1 61 0 122 0 183 0 4 0 7 0 10-1 6-1 9-4 9-10 0-4-1-11-9-11z m-180-43c12-27 42-44 78-44 5 0 10 0 15 1 32 4 60 24 64 45l2 12h-166l7-14z m130-6c-9-8-23-15-40-18-4 0-8 0-12 0-20 0-38 7-50 18h102z" horiz-adv-x="1000" />
<glyph glyph-name="plateau-1" unicode="&#xe830;" d="m919 690h-659c-26 0-51-24-51-50v-102c0-28 26-45 51-45h659c25 0 42 18 42 45v102c0 29-18 50-42 50z m-11-143h-645v90h645v-90z m-76-98h-659c-28 0-45-26-45-51v-102c0-26 19-44 45-44h659c28 0 49 18 49 44v102c0 26-23 51-49 51z m-5-144h-645v90h645v-90z m-82-98h-659c-28 0-47-27-47-52v-102c0-25 20-43 47-43h659c27 0 46 18 46 43v102c0 25-18 52-46 52z m-8-144l-644 0v90h644v-90z" horiz-adv-x="1000" />
<glyph glyph-name="deliverable" unicode="&#xe822;" d="m237 106c0 0 0 0 0 0-144 0-204 100-206 104l-3 5v379h944v-419l-34 30c-68 59-127 85-191 85-66 0-143-28-234-87-101-65-194-97-276-97z m-168 120c12-17 63-79 168-79 0 0 0 0 0 0 74 0 160 30 254 91 98 63 181 93 256 93 64 0 122-21 184-68v290h-862v-327z" horiz-adv-x="1000" />
</font>
</defs>
</svg>
